<svg width="30" height="30" viewBox="0 0 30 30" fill="none" xmlns="http://www.w3.org/2000/svg">
<path d="M8.84062 12.2662L6.26812 14.8387C5.21314 15.8937 4.62045 17.3246 4.62045 18.8166C4.62045 20.3085 5.21314 21.7394 6.26812 22.7944C7.3231 23.8494 8.75396 24.442 10.2459 24.442C11.7379 24.442 13.1688 23.8494 14.2237 22.7944L17.6512 19.365C18.2874 18.7287 18.7617 17.9491 19.0342 17.0917C19.3068 16.2342 19.3696 15.3238 19.2175 14.437C19.0655 13.5502 18.7029 12.7128 18.1602 11.9951C17.6175 11.2775 16.9106 10.7004 16.0987 10.3125L15 11.4112C14.8884 11.523 14.7914 11.6484 14.7112 11.7844C15.3385 11.9647 15.9078 12.3056 16.3629 12.7734C16.818 13.2411 17.1432 13.8196 17.3062 14.4515C17.4693 15.0835 17.4646 15.747 17.2926 16.3766C17.1206 17.0062 16.7873 17.58 16.3256 18.0412L12.9 21.4688C12.1963 22.1724 11.242 22.5677 10.2469 22.5677C9.25175 22.5677 8.29739 22.1724 7.59374 21.4688C6.89009 20.7651 6.49478 19.8107 6.49478 18.8156C6.49478 17.8205 6.89009 16.8662 7.59374 16.1625L9.08062 14.6775C8.87083 13.8914 8.78978 13.0764 8.84062 12.2644V12.2662Z" fill="white"/>
<path d="M12.3487 8.75998C11.7126 9.39625 11.2383 10.1758 10.9658 11.0333C10.6932 11.8908 10.6304 12.8012 10.7824 13.688C10.9345 14.5748 11.2971 15.4122 11.8398 16.1298C12.3825 16.8475 13.0894 17.4245 13.9012 17.8125L15.3544 16.3575C14.7187 16.187 14.139 15.8521 13.6737 15.3866C13.2084 14.9211 12.8738 14.3413 12.7035 13.7055C12.5333 13.0697 12.5334 12.4003 12.7038 11.7646C12.8742 11.1288 13.2089 10.5491 13.6744 10.0837L17.1 6.65623C17.8037 5.95258 18.758 5.55727 19.7531 5.55727C20.7482 5.55727 21.7026 5.95258 22.4062 6.65623C23.1099 7.35988 23.5052 8.31424 23.5052 9.30935C23.5052 10.3045 23.1099 11.2588 22.4062 11.9625L20.9194 13.4475C21.1294 14.235 21.21 15.0506 21.1594 15.8606L23.7319 13.2881C24.7869 12.2331 25.3795 10.8023 25.3795 9.31029C25.3795 7.81832 24.7869 6.38746 23.7319 5.33248C22.6769 4.2775 21.246 3.68481 19.7541 3.68481C18.2621 3.68481 16.8312 4.2775 15.7762 5.33248L12.3487 8.75998Z" fill="white"/>
</svg>
