<svg width="49" height="48" viewBox="0 0 49 48" fill="none" xmlns="http://www.w3.org/2000/svg">
<path d="M34.9694 12.14C32.8837 12.1767 30.8742 12.9304 29.2788 14.2744C27.6835 15.6184 26.5996 17.4708 26.2094 19.52C24.2508 16.4759 22.7166 13.1788 21.6494 9.71997H17.1294V21.72C17.1294 22.8551 16.6784 23.9437 15.8758 24.7464C15.0731 25.549 13.9845 26 12.8494 26C11.7142 26 10.6256 25.549 9.82294 24.7464C9.02029 23.9437 8.56936 22.8551 8.56936 21.72V9.71997L4.02936 9.81997V21.82C4.04262 24.1539 4.98248 26.3869 6.64217 28.0279C8.30187 29.6688 10.5455 30.5832 12.8794 30.57C15.2133 30.5567 17.4463 29.6168 19.0873 27.9572C20.7282 26.2975 21.6426 24.0539 21.6294 21.72V19.72C22.5889 21.6021 23.6922 23.4075 24.9294 25.12L22.1694 38.34H26.8094L28.8094 28.72C30.6629 29.9112 32.8262 30.5302 35.0294 30.5C37.4534 30.5 39.7782 29.537 41.4923 27.8229C43.2064 26.1088 44.1694 23.784 44.1694 21.36C44.1694 18.9359 43.2064 16.6111 41.4923 14.897C39.7782 13.1829 37.4534 12.22 35.0294 12.22L34.9694 12.14ZM34.9694 25.8C33.09 25.7393 31.289 25.033 29.8694 23.8L30.3294 21.98V21.88C30.6494 19.88 31.6494 16.68 35.0294 16.68C35.622 16.6747 36.2098 16.7865 36.7591 17.0091C37.3084 17.2316 37.8083 17.5604 38.2301 17.9767C38.652 18.393 38.9875 18.8885 39.2173 19.4348C39.4471 19.981 39.5667 20.5673 39.5694 21.16C39.5265 22.3599 39.0373 23.5006 38.1976 24.3589C37.3579 25.2171 36.2281 25.731 35.0294 25.8H34.9694Z" fill="#363625"/>
</svg>
