<svg width="48" height="48" viewBox="0 0 48 48" fill="none" xmlns="http://www.w3.org/2000/svg">
<path d="M34.94 12.14C32.8543 12.1767 30.8448 12.9304 29.2495 14.2744C27.6542 15.6185 26.5702 17.4708 26.18 19.52C24.2214 16.4759 22.6873 13.1788 21.62 9.72H17.1V21.72C17.1 22.8551 16.6491 23.9438 15.8464 24.7464C15.0438 25.5491 13.9551 26 12.82 26C11.6849 26 10.5962 25.5491 9.79358 24.7464C8.99093 23.9438 8.54 22.8551 8.54 21.72V9.72L4 9.82V21.82C4.01326 24.1539 4.95312 26.387 6.61282 28.0279C8.27251 29.6688 10.5161 30.5833 12.85 30.57C15.1839 30.5567 17.417 29.6169 19.0579 27.9572C20.6988 26.2975 21.6133 24.0539 21.6 21.72V19.72C22.5596 21.6021 23.6628 23.4075 24.9 25.12L22.14 38.34H26.78L28.78 28.72C30.6336 29.9112 32.7969 30.5303 35 30.5C37.4241 30.5 39.7489 29.537 41.463 27.823C43.177 26.1089 44.14 23.7841 44.14 21.36C44.14 18.9359 43.177 16.6111 41.463 14.897C39.7489 13.183 37.4241 12.22 35 12.22L34.94 12.14ZM34.94 25.8C33.0607 25.7393 31.2596 25.033 29.84 23.8L30.3 21.98V21.88C30.62 19.88 31.62 16.68 35 16.68C35.5926 16.6747 36.1805 16.7866 36.7297 17.0091C37.279 17.2316 37.7789 17.5605 38.2008 17.9767C38.6226 18.393 38.9581 18.8885 39.1879 19.4348C39.4177 19.9811 39.5374 20.5674 39.54 21.16C39.4971 22.3599 39.008 23.5007 38.1682 24.3589C37.3285 25.2171 36.1987 25.731 35 25.8H34.94Z" fill="#363625"/>
</svg>
