<svg width="51" height="50" viewBox="0 0 51 50" fill="none" xmlns="http://www.w3.org/2000/svg">
<path d="M45.0294 18.4325V36.25C45.0294 37.9076 44.3709 39.4973 43.1988 40.6694C42.0267 41.8415 40.437 42.5 38.7794 42.5H11.2794C9.62175 42.5 8.03204 41.8415 6.85994 40.6694C5.68784 39.4973 5.02936 37.9076 5.02936 36.25V18.4325L24.3944 29.8275C24.5867 29.941 24.806 30.0008 25.0294 30.0008C25.2527 30.0008 25.472 29.941 25.6644 29.8275L45.0294 18.4325ZM38.7794 10C40.3172 9.99976 41.8012 10.5665 42.9474 11.5918C44.0936 12.6172 44.8215 14.0291 44.9919 15.5575L25.0294 27.3L5.06686 15.5575C5.23725 14.0291 5.96517 12.6172 7.11135 11.5918C8.25752 10.5665 9.74149 9.99976 11.2794 10H38.7794Z" fill="#363625"/>
</svg>
