<svg width="30" height="31" viewBox="0 0 30 31" fill="none" xmlns="http://www.w3.org/2000/svg">
<path d="M15.0875 2.97086C17.6375 2.32502 20.1125 2.51877 22.3 3.33252C23.2 3.66836 23.4375 4.90836 22.6875 5.54127C21.2594 6.74726 20.109 8.26666 19.3198 9.9892C18.5307 11.7117 18.1225 13.5942 18.125 15.5C18.1225 17.4058 18.5307 19.2883 19.3198 21.0109C20.109 22.7334 21.2594 24.2528 22.6875 25.4588C23.425 26.0917 23.2125 27.3317 22.3 27.6546C21 28.1454 19.5875 28.4167 18.125 28.4167C10.5625 28.4167 4.56247 21.4675 5.78747 13.4334C6.54997 8.37002 10.275 4.18502 15.0875 2.97086Z" fill="#D0E015"/>
</svg>
