<svg width="25" height="35" viewBox="0 0 25 35" fill="none" xmlns="http://www.w3.org/2000/svg">
<g clip-path="url(#clip0_77_48)">
<path d="M6.25 35C9.7 35 12.5 32.3867 12.5 29.1667V23.3334H6.25C2.8 23.3334 0 25.9467 0 29.1667C0 32.3867 2.8 35 6.25 35Z" fill="#0ACF83"/>
<path d="M0 17.5C0 14.28 2.8 11.6666 6.25 11.6666H12.5V23.3333H6.25C2.8 23.3333 0 20.72 0 17.5Z" fill="#A259FF"/>
<path d="M0 5.83333C0 2.61333 2.8 0 6.25 0H12.5V11.6667H6.25C2.8 11.6667 0 9.05333 0 5.83333Z" fill="#F24E1E"/>
<path d="M12.5 0H18.75C22.2 0 25 2.61333 25 5.83333C25 9.05333 22.2 11.6667 18.75 11.6667H12.5V0Z" fill="#FF7262"/>
<path d="M25 17.5C25 20.72 22.2 23.3333 18.75 23.3333C15.3 23.3333 12.5 20.72 12.5 17.5C12.5 14.28 15.3 11.6666 18.75 11.6666C22.2 11.6666 25 14.28 25 17.5Z" fill="#1ABCFE"/>
</g>
<defs>
<clipPath id="clip0_77_48">
<rect width="25" height="35" fill="white"/>
</clipPath>
</defs>
</svg>
