<svg width="30" height="30" viewBox="0 0 35 35" fill="none" xmlns="http://www.w3.org/2000/svg">
<g clip-path="url(#clip0_75_65)">
<path d="M16.3538 0.00881022C16.2779 0.0161019 16.0388 0.0408936 15.8229 0.0569352C10.8529 0.506102 6.19792 3.18798 3.24625 7.31068C1.61627 9.57362 0.556675 12.1966 0.1575 14.9567C0.0175 15.9192 0 16.2021 0 17.5059C0 18.8096 0.0175 19.094 0.1575 20.0551C1.10833 26.6278 5.78667 32.149 12.129 34.1951C13.265 34.5611 14.4623 34.8105 15.8229 34.9621C16.3538 35.0205 18.6462 35.0205 19.1771 34.9621C21.5265 34.7011 23.5185 34.1192 25.4815 33.1174C25.7833 32.9642 25.8417 32.9219 25.8008 32.8884C24.8407 31.6221 23.8903 30.3485 22.9498 29.0676L20.1513 25.2861L16.6454 20.0959C15.4789 18.3599 14.3015 16.6313 13.1133 14.9101C13.1002 14.9057 13.0871 17.2113 13.0798 20.0288C13.0696 24.958 13.0652 25.1563 13.004 25.273C12.9442 25.4091 12.8376 25.5193 12.7035 25.5836C12.5942 25.639 12.4994 25.6492 11.9817 25.6492H11.3896L11.2321 25.5501C11.1346 25.4885 11.0555 25.4019 11.0031 25.2992L10.9302 25.1461L10.9375 18.2861L10.9477 11.4232L11.0542 11.289C11.1258 11.2051 11.2117 11.1345 11.3079 11.0805C11.4479 11.0119 11.5019 11.0061 12.0954 11.0061C12.7925 11.0061 12.9092 11.0324 13.09 11.2307C13.141 11.2861 15.0398 14.1474 17.3119 17.5919L24.2156 28.0511L26.9865 32.2482L27.1279 32.1563C28.4614 31.2698 29.6704 30.2089 30.7227 29.0019C32.9279 26.478 34.3584 23.3715 34.8425 20.0551C34.9825 19.0926 35 18.8096 35 17.5059C35 16.2021 34.9825 15.9192 34.8425 14.9567C33.8917 8.38548 29.2133 2.86277 22.871 0.816727C21.6857 0.439849 20.4651 0.184302 19.2281 0.0540185C18.8985 0.0190186 16.6381 -0.0188981 16.3552 0.0102686L16.3538 0.00881022ZM23.5185 10.5963C23.5999 10.6373 23.6723 10.6939 23.7316 10.763C23.7909 10.8321 23.836 10.9122 23.8642 10.9988C23.8904 11.0863 23.8977 12.9894 23.8904 17.2769L23.8802 23.4282L22.7967 21.7657L21.7087 20.1032V15.6319C21.7087 12.7401 21.7219 11.1155 21.7423 11.0367C21.7666 10.9456 21.8091 10.8604 21.8672 10.7862C21.9254 10.712 21.998 10.6504 22.0806 10.6051C22.2221 10.5321 22.2731 10.5263 22.8098 10.5263C23.3158 10.5263 23.4048 10.5336 23.5185 10.5949V10.5963Z" fill="white"/>
</g>
<defs>
<clipPath id="clip0_75_65">
<rect width="35" height="35" fill="white"/>
</clipPath>
</defs>
</svg>
