<svg width="35" height="35" viewBox="0 0 35 35" fill="none" xmlns="http://www.w3.org/2000/svg">
<path d="M26.9792 13.8687C25.8855 13.4921 24.9201 12.8148 24.1937 11.9146C23.3932 10.9116 22.3738 10.105 21.2136 9.55649C20.0534 9.00799 18.7832 8.73212 17.5 8.75C15.7739 8.62775 14.065 9.16014 12.7137 10.2412C11.3625 11.3222 10.468 12.8725 10.2083 14.5833C10.7197 13.7276 11.4894 13.0563 12.4066 12.6658C13.3238 12.2753 14.3412 12.1859 15.3125 12.4104C16.4043 12.798 17.3681 13.4793 18.0979 14.3792C18.9028 15.3741 19.9241 16.1724 21.0841 16.7132C22.244 17.254 23.512 17.5231 24.7917 17.5C26.5178 17.6222 28.2266 17.0898 29.5779 16.0088C30.9292 14.9278 31.8237 13.3775 32.0833 11.6667C31.5812 12.5326 30.814 13.2141 29.8949 13.6106C28.9758 14.0071 27.9536 14.0976 26.9792 13.8687ZM8.02082 21.1312C9.11449 21.5079 10.0799 22.1852 10.8062 23.0854C11.6068 24.0884 12.6262 24.895 13.7863 25.4435C14.9465 25.992 16.2168 26.2679 17.5 26.25C19.2261 26.3722 20.935 25.8398 22.2862 24.7588C23.6375 23.6778 24.532 22.1275 24.7917 20.4167C24.2803 21.2723 23.5106 21.9437 22.5934 22.3342C21.6762 22.7247 20.6587 22.8141 19.6875 22.5896C18.5956 22.2019 17.6318 21.5207 16.9021 20.6208C16.095 19.6283 15.0732 18.8318 13.9138 18.2912C12.7544 17.7507 11.4874 17.4801 10.2083 17.5C8.48219 17.3778 6.77334 17.9101 5.42208 18.9912C4.07082 20.0722 3.1763 21.6225 2.91666 23.3333C3.41877 22.4674 4.186 21.7859 5.10508 21.3894C6.02416 20.9929 7.04638 20.9024 8.02082 21.1312Z" fill="white"/>
</svg>
